# xmcd
#
# Track frame offsets:
#	150
#	23444
#	43187
#	61155
#	77250
#	93834
#	111839
#	128424
#	158121
#	176092
#	194589
#	212667
#	234310
#	252010
#	272031
#	294767
#
# Disc length: 4237 seconds
#
# Revision: 1
# Processed by: cddbd v1.5.2PL0 Copyright (c) Steve Scherf et al.
# Submitted via: audiograbber 1.83.01
#
DISCID=c6108b10
DTITLE=Валерий Леонтьев - Лучшее
DYEAR=2000
DGENRE=Pop
TTITLE0=Безымянная планета (new)
TTITLE1=Я не плейбой
TTITLE2=Августин
TTITLE3=Каждый хочет любить
TTITLE4=Если ты уйдёшь
TTITLE5=Девять хризантем
TTITLE6=Зелёный свет
TTITLE7=Танго разбитых сердец
TTITLE8=Санта Барбара
TTITLE9=Исчезли солнечные дни
TTITLE10=Вернисаж
TTITLE11=Казанова
TTITLE12=Канатный плясун
TTITLE13=Ты меня не забывай
TTITLE14=Маргарита
TTITLE15=По дороге в Голливуд
EXTD=Сборник лучших песен в исполнении популярного советского и российского арт
EXTD=иста Валерия Леонтьева.
EXTT0=
EXTT1=
EXTT2=
EXTT3=
EXTT4=
EXTT5=
EXTT6=
EXTT7=
EXTT8=
EXTT9=
EXTT10=
EXTT11=
EXTT12=
EXTT13=
EXTT14=
EXTT15=
PLAYORDER=
